# xmcd CD database file
#
# Track frame offsets:
#	150
#	16413
#	31425
#	50540
#	57475
#	89575
#	112098
#	132175
#	145968
#
# Disc length: 2395 seconds
#
# Revision: 3
# Processed by: cddbd v1.5.1PL0 Copyright (c) Steve Scherf et al.
# Submitted via: CDex 1.51
#
DISCID=83095909
DTITLE=樋口宗孝 - Destruction〜破壊凱旋録〜
DYEAR=1986
DGENRE=Heavy Metal
TTITLE0=Law Breaker 「M」
TTITLE1=Jet Fighter
TTITLE2=Tiger
TTITLE3=Prayer
TTITLE4=Runaway From Yesterday
TTITLE5=In The Dark
TTITLE6=Death
TTITLE7=Growing Power
TTITLE8=Destruction
EXTD=YEAR: 1986
EXTT0=
EXTT1=
EXTT2=
EXTT3=
EXTT4=
EXTT5=
EXTT6=
EXTT7=
EXTT8=
PLAYORDER=
